<svg width="34" height="21" fill="none" xmlns="http://www.w3.org/2000/svg"><path fill-rule="evenodd" clip-rule="evenodd" d="M33.667 10.119c0 5.59-4.531 10.12-10.12 10.12-5.587 0-10.118-4.53-10.118-10.12C13.429 4.529 17.953 0 23.54 0s10.126 4.529 10.126 10.119z" fill="#F79F1A"/><path fill-rule="evenodd" clip-rule="evenodd" d="M20.571 10.119c0 5.59-4.53 10.12-10.119 10.12-5.588 0-10.119-4.53-10.119-10.12C.333 4.529 4.864 0 10.453 0 16.04 0 20.57 4.529 20.57 10.119z" fill="#EA001B"/><path fill-rule="evenodd" clip-rule="evenodd" d="M17.595 2.38c-2.537 1.797-4.166 4.597-4.166 7.739 0 3.142 1.628 5.942 4.166 7.738 2.538-1.796 4.167-4.596 4.167-7.738 0-3.142-1.629-5.935-4.167-7.738z" fill="#FF5F01"/></svg>