<svg width="40" height="40" fill="none" xmlns="http://www.w3.org/2000/svg"><g fill-rule="evenodd" clip-rule="evenodd"><path d="M16.132 13.632L14.1 26.117h3.25l2.033-12.485h-3.25zm-4.766 0l-3.1 8.587-.366-1.85v.002l-.08-.415A10.354 10.354 0 004.936 16.3a13.007 13.007 0 00-1.447-1l2.817 10.817h3.386l5.172-12.485h-3.498zm12.686 3.466c0-1.412 3.165-1.23 4.556-.464l.464-2.681s-1.432-.545-2.924-.545c-1.613 0-5.443.706-5.443 4.133 0 3.226 4.496 3.267 4.496 4.96 0 1.694-4.033 1.391-5.364.323l-.483 2.803s1.451.705 3.67.705c2.217 0 5.564-1.149 5.564-4.274 0-3.247-4.537-3.549-4.537-4.96zm13.264-3.466h-2.614c-1.207 0-1.5.93-1.5.93l-4.848 11.555h3.388l.678-1.854h4.132l.381 1.854h2.985l-2.602-12.485zm-3.96 8.069l1.709-4.673.96 4.673h-2.669z" fill="#005BAC"/><path d="M6.851 14.807s-.134-1.127-1.57-1.127H.062l-.061.212s2.508.511 4.915 2.427c2.3 1.831 3.05 4.114 3.05 4.114L6.85 14.806z" fill="#F6AC1D"/></g></svg>